<?xml version="1.0" encoding="iso-8859-1"?>
<!-- Generator: Adobe Illustrator 19.0.0, SVG Export Plug-In . SVG Version: 6.00 Build 0)  -->
<svg version="1.1" id="Layer_1" xmlns="http://www.w3.org/2000/svg" xmlns:xlink="http://www.w3.org/1999/xlink" x="0px" y="0px"
	 viewBox="0 0 512 512" style="enable-background:new 0 0 512 512;" xml:space="preserve">
<path style="fill:#DEDEE0;" d="M488.727,93.092h-85.333h-46.545H256H155.152h-46.545H23.273C10.42,93.092,0,103.512,0,116.365
	v372.362C0,501.58,10.42,512,23.273,512H256h232.727C501.58,512,512,501.58,512,488.727V116.365
	C512,103.512,501.58,93.092,488.727,93.092z"/>
<path style="fill:#77757F;" d="M155.152,46.545h201.697v46.547h46.545v-69.82C403.394,10.42,392.974,0,380.121,0H131.879
	c-12.853,0-23.273,10.42-23.273,23.273v69.82h46.545V46.545z"/>
<polygon style="fill:#D8143A;" points="287.03,271.517 287.03,209.455 256,209.455 224.968,209.455 224.968,271.517 
	162.909,271.517 162.909,333.577 224.968,333.577 224.968,395.636 256,395.636 287.03,395.636 287.03,333.577 349.091,333.577 
	349.091,271.517 "/>
<path style="fill:#D6D5D8;" d="M23.273,512H256V395.636h-31.032v-62.059h-62.059v-62.061h62.059v-62.062H256V93.092H155.152h-46.545
	H23.273C10.42,93.092,0,103.512,0,116.365v372.362C0,501.58,10.42,512,23.273,512z"/>
<g>
</g>
<g>
</g>
<g>
</g>
<g>
</g>
<g>
</g>
<g>
</g>
<g>
</g>
<g>
</g>
<g>
</g>
<g>
</g>
<g>
</g>
<g>
</g>
<g>
</g>
<g>
</g>
<g>
</g>
</svg>
